HIERARCHY
ROOT RootJoint
{
    OFFSET   0.000000   0.000000   0.000000
    CHANNELS 6 Xposition Yposition Zposition Xrotation Yrotation Zrotation
    JOINT pelvis_lowerback
    {
        OFFSET   0.000000   0.093605   0.000000
        CHANNELS 3 Xrotation Yrotation Zrotation
        JOINT lowerback_torso
        {
            OFFSET   0.000000   0.100000   0.000000
            CHANNELS 3 Xrotation Yrotation Zrotation
            JOINT torso_head
            {
                OFFSET   0.000000   0.282350   0.000000
                CHANNELS 3 Xrotation Yrotation Zrotation
                End Site
                {
                    OFFSET   0.000000   0.192650   0.000000
                }
            }
            JOINT rTorso_Clavicle
            {
                OFFSET  -0.001000   0.157500   0.000000
                CHANNELS 3 Xrotation Yrotation Zrotation
                JOINT rShoulder
                {
                    OFFSET  -0.117647   0.000000   0.000000
                    CHANNELS 3 Xrotation Yrotation Zrotation
                    JOINT rElbow
                    {
                        OFFSET  -0.245000   0.000000   0.000000
                        CHANNELS 3 Xrotation Yrotation Zrotation
                        JOINT rWrist
                        {
                            OFFSET  -0.240000   0.000000   0.000000
                            CHANNELS 3 Xrotation Yrotation Zrotation
                            End Site
                            {
                                OFFSET  -0.116353  -0.002500   0.000000
                            }
                        }
                    }
                }
            }
            JOINT lTorso_Clavicle
            {
                OFFSET   0.001000   0.157500   0.000000
                CHANNELS 3 Xrotation Yrotation Zrotation
                JOINT lShoulder
                {
                    OFFSET   0.117647   0.000000   0.000000
                    CHANNELS 3 Xrotation Yrotation Zrotation
                    JOINT lElbow
                    {
                        OFFSET   0.245000   0.000000   0.000000
                        CHANNELS 3 Xrotation Yrotation Zrotation
                        JOINT lWrist
                        {
                            OFFSET   0.240000   0.000000   0.000000
                            CHANNELS 3 Xrotation Yrotation Zrotation
                            End Site
                            {
                                OFFSET   0.116353  -0.002500   0.000000
                            }
                        }
                    }
                }
            }
        }
    }
    JOINT rHip
    {
        OFFSET  -0.100000  -0.051395   0.000000
        CHANNELS 3 Xrotation Yrotation Zrotation
        JOINT rKnee
        {
            OFFSET   0.000000  -0.410000   0.000000
            CHANNELS 3 Xrotation Yrotation Zrotation
            JOINT rAnkle
            {
                OFFSET   0.000000  -0.390000   0.000000
                CHANNELS 3 Xrotation Yrotation Zrotation
                JOINT rToeJoint
                {
                    OFFSET   0.000000  -0.050000   0.130000
                    CHANNELS 3 Xrotation Yrotation Zrotation
                    End Site
                    {
                        OFFSET  -0.010000   0.002000   0.060000
                    }
                }
            }
        }
    }
    JOINT lHip
    {
        OFFSET   0.100000  -0.051395   0.000000
        CHANNELS 3 Xrotation Yrotation Zrotation
        JOINT lKnee
        {
            OFFSET   0.000000  -0.410000   0.000000
            CHANNELS 3 Xrotation Yrotation Zrotation
            JOINT lAnkle
            {
                OFFSET   0.000000  -0.390000   0.000000
                CHANNELS 3 Xrotation Yrotation Zrotation
                JOINT lToeJoint
                {
                    OFFSET   0.000000  -0.050000   0.130000
                    CHANNELS 3 Xrotation Yrotation Zrotation
                    End Site
                    {
                        OFFSET   0.010000   0.002000   0.060000
                    }
                }
            }
        }
    }
}
MOTION
Frames: 5
Frame Time:   0.008333
 -2.473134   0.909580   4.868381  -4.041844 -36.213274  -1.274583  15.929820  -1.643956  -5.803455  10.167873  -3.819494  -1.763465   4.930636  -1.039306   0.382811   2.455516   6.706038   8.106688  10.304740   7.800795  38.719054   0.000890  26.894539  -0.001351   7.231829   2.429206   0.906666   0.509564 -10.995658  -8.487118   0.993284  -8.832063 -34.337654  -0.000652 -19.436555   0.001693   2.659110  -0.096886   5.280656  -8.565076  -0.615852  -2.359872  45.144491  -0.010827  -0.019942 -14.838573   4.263968   3.743211  -2.763394  -0.004757  -0.008787  -3.879930  -2.709118   1.668032  17.906126  -0.003694   0.004217 -10.443888   3.135576  -1.037764  -0.585980   0.000756   0.000698
 -2.474717   0.910234   4.872659  -3.967229 -36.280966  -1.379924  15.807938  -1.737638  -5.733068  10.097592  -3.914283  -1.676800   4.967975  -1.045457   0.316508   2.474965   6.485951   7.897710  10.462486   7.606357  38.640626   0.001332  26.685770  -0.001998   7.232551   2.492754   1.048814   0.456859 -11.051261  -8.418250   1.090847  -9.040642 -34.209568  -0.000874 -19.664097   0.002120   2.667979  -0.071296   5.134147  -8.690283  -0.991300  -2.327879  45.344493  -0.009094  -0.016591 -14.748498   3.801506   3.718783  -2.666426  -0.003867  -0.007789  -3.420662  -2.522499   1.756590  17.501481  -0.003406   0.003057 -10.527169   3.149854  -1.020179  -0.594119   0.000599   0.000550
 -2.476317   0.910830   4.876817  -3.876580 -36.412364  -1.471151  15.683321  -1.800432  -5.687413  10.010874  -3.993654  -1.599889   5.001349  -1.048570   0.254389   2.497816   6.274544   7.679571  10.615864   7.414799  38.556672   0.001696  26.483769  -0.002485   7.233974   2.509915   1.193010   0.398365 -11.105579  -8.325599   1.176485  -9.241490 -34.071252  -0.001103 -19.884219   0.002413   2.681423  -0.093484   5.001160  -8.824896  -1.345047  -2.304196  45.368968  -0.007333  -0.013359 -14.674144   3.366632   3.695424  -2.597275  -0.003137  -0.006774  -2.997226  -2.335532   1.844141  17.138245  -0.003051   0.002352 -10.612218   3.173346  -0.998861  -0.639523   0.000452   0.000415
 -2.477938   0.911363   4.880880  -3.791868 -36.586786  -1.558156  15.563985  -1.855998  -5.657432   9.920441  -4.067000  -1.535836   5.031772  -1.050949   0.194888   2.518037   6.075432   7.460962  10.759588   7.231867  38.468489   0.001962  26.293637  -0.002838   7.235921   2.508512   1.318187   0.338508 -11.157294  -8.220460   1.254145  -9.429585 -33.927028  -0.001285 -20.091121   0.002606   2.695486  -0.128718   4.900426  -8.975529  -1.675920  -2.290121  45.347718  -0.005818  -0.010606 -14.606695   2.960422   3.673962  -2.534881  -0.002551  -0.005903  -2.586019  -2.156991   1.926722  16.806234  -0.002680   0.001940 -10.700566   3.200024  -0.979528  -0.710887   0.000325   0.000322
 -2.479593   0.911839   4.884865  -3.717122 -36.775910  -1.645037  15.449490  -1.915467  -5.634636   9.831553  -4.142039  -1.479199   5.060355  -1.053446   0.138648   2.536776   5.886311   7.247162  10.894553   7.057226  38.379567   0.002132  26.114982  -0.003076   7.237896   2.497612   1.423915   0.278446 -11.208237  -8.111384   1.324733  -9.606420 -33.782792  -0.001409 -20.285120   0.002716   2.709700  -0.167634   4.824316  -9.134198  -1.986649  -2.281037  45.310799  -0.004574  -0.008345 -14.544510   2.581112   3.654382  -2.478078  -0.002077  -0.005148  -2.183437  -1.978782   2.004256  16.503187  -0.002339   0.001646 -10.792292   3.236862  -0.963299  -0.801317   0.000215   0.000249
